%TF.GenerationSoftware,KiCad,Pcbnew,7.0.10*%
%TF.CreationDate,2024-02-03T22:52:17+05:30*%
%TF.ProjectId,ControlUnit,436f6e74-726f-46c5-956e-69742e6b6963,rev?*%
%TF.SameCoordinates,Original*%
%TF.FileFunction,Copper,L2,Inr*%
%TF.FilePolarity,Positive*%
%FSLAX46Y46*%
G04 Gerber Fmt 4.6, Leading zero omitted, Abs format (unit mm)*
G04 Created by KiCad (PCBNEW 7.0.10) date 2024-02-03 22:52:17*
%MOMM*%
%LPD*%
G01*
G04 APERTURE LIST*
%TA.AperFunction,ComponentPad*%
%ADD10R,1.600000X2.400000*%
%TD*%
%TA.AperFunction,ComponentPad*%
%ADD11O,1.600000X2.400000*%
%TD*%
%TA.AperFunction,ComponentPad*%
%ADD12C,1.930400*%
%TD*%
%TA.AperFunction,ComponentPad*%
%ADD13R,1.930400X1.930400*%
%TD*%
%TA.AperFunction,ComponentPad*%
%ADD14R,1.530000X1.530000*%
%TD*%
%TA.AperFunction,ComponentPad*%
%ADD15C,1.530000*%
%TD*%
%TA.AperFunction,ComponentPad*%
%ADD16R,0.850000X0.850000*%
%TD*%
%TA.AperFunction,ComponentPad*%
%ADD17O,0.850000X0.850000*%
%TD*%
%TA.AperFunction,ComponentPad*%
%ADD18C,0.800000*%
%TD*%
%TA.AperFunction,ComponentPad*%
%ADD19C,6.400000*%
%TD*%
%TA.AperFunction,ComponentPad*%
%ADD20O,1.600000X2.000000*%
%TD*%
%TA.AperFunction,ComponentPad*%
%ADD21R,2.600000X2.600000*%
%TD*%
%TA.AperFunction,ComponentPad*%
%ADD22C,2.600000*%
%TD*%
%TA.AperFunction,ViaPad*%
%ADD23C,0.700000*%
%TD*%
%TA.AperFunction,Conductor*%
%ADD24C,0.200000*%
%TD*%
G04 APERTURE END LIST*
D10*
%TO.N,Net-(J3-Pin_2)*%
%TO.C,U6*%
X179240000Y-133840000D03*
D11*
%TO.N,Net-(J3-Pin_3)*%
X176700000Y-133840000D03*
%TO.N,Net-(J3-Pin_4)*%
X174160000Y-133840000D03*
%TO.N,Net-(J3-Pin_5)*%
X171620000Y-133840000D03*
%TO.N,unconnected-(U6-QF-Pad5)*%
X169080000Y-133840000D03*
%TO.N,unconnected-(U6-QG-Pad6)*%
X166540000Y-133840000D03*
%TO.N,unconnected-(U6-QH-Pad7)*%
X164000000Y-133840000D03*
%TO.N,GND*%
X161460000Y-133840000D03*
%TO.N,unconnected-(U6-QH'-Pad9)*%
X161460000Y-144000000D03*
%TO.N,GND*%
X164000000Y-144000000D03*
%TO.N,/CLATCH_PIN*%
X166540000Y-144000000D03*
%TO.N,/CCLOCK_PIN*%
X169080000Y-144000000D03*
%TO.N,GND*%
X171620000Y-144000000D03*
%TO.N,/CD_PIN*%
X174160000Y-144000000D03*
%TO.N,Net-(J3-Pin_1)*%
X176700000Y-144000000D03*
%TO.N,+5V*%
X179240000Y-144000000D03*
%TD*%
D12*
%TO.N,Net-(D3C-A)*%
%TO.C,U5*%
X98920000Y-154302900D03*
%TO.N,Net-(D3B-A)*%
X101460000Y-154302900D03*
D13*
%TO.N,GND*%
X109080000Y-154302900D03*
D12*
%TO.N,Net-(D3A-A)*%
X104000000Y-154302900D03*
%TO.N,+5V*%
X106540000Y-154302900D03*
%TD*%
D14*
%TO.N,+3.3V*%
%TO.C,U1*%
X131200000Y-54000000D03*
D15*
%TO.N,unconnected-(U1-EN-Pad2)*%
X128660000Y-54000000D03*
%TO.N,unconnected-(U1-SENSOR_VP-Pad3)*%
X126120000Y-54000000D03*
%TO.N,unconnected-(U1-SENSOR_VN-Pad4)*%
X123580000Y-54000000D03*
%TO.N,/GPIO34*%
X121040000Y-54000000D03*
%TO.N,/GPIO35*%
X118500000Y-54000000D03*
%TO.N,/CD_PIN*%
X115960000Y-54000000D03*
%TO.N,/GPIO33*%
X113420000Y-54000000D03*
%TO.N,/DATA_A*%
X110880000Y-54000000D03*
%TO.N,/LATCH_PIN*%
X108340000Y-54000000D03*
%TO.N,/CLOCK_PIN*%
X105800000Y-54000000D03*
%TO.N,/CLATCH_PIN*%
X103260000Y-54000000D03*
%TO.N,/DATA_B*%
X100720000Y-54000000D03*
%TO.N,unconnected-(U1-GND1-Pad14)*%
X98180000Y-54000000D03*
%TO.N,/LED_BUILT_IN*%
X95640000Y-54000000D03*
%TO.N,unconnected-(U1-SD2-Pad16)*%
X93100000Y-54000000D03*
%TO.N,unconnected-(U1-SD3-Pad17)*%
X90560000Y-54000000D03*
%TO.N,unconnected-(U1-CMD-Pad18)*%
X88020000Y-54000000D03*
%TO.N,+5V*%
X85480000Y-54000000D03*
%TO.N,unconnected-(U1-CLK-Pad20)*%
X85480000Y-79400000D03*
%TO.N,unconnected-(U1-SD0-Pad21)*%
X88020000Y-79400000D03*
%TO.N,unconnected-(U1-SD1-Pad22)*%
X90560000Y-79400000D03*
%TO.N,/OUTPUTA*%
X93100000Y-79400000D03*
%TO.N,/OUTPUTB*%
X95640000Y-79400000D03*
%TO.N,/SELECT_SW*%
X98180000Y-79400000D03*
%TO.N,/CCLOCK_PIN*%
X100720000Y-79400000D03*
%TO.N,/CLK*%
X103260000Y-79400000D03*
%TO.N,/DT*%
X105800000Y-79400000D03*
%TO.N,/SW*%
X108340000Y-79400000D03*
%TO.N,/GPIO18*%
X110880000Y-79400000D03*
%TO.N,/GPIO19*%
X113420000Y-79400000D03*
%TO.N,unconnected-(U1-GND2-Pad32)*%
X115960000Y-79400000D03*
%TO.N,/SDA*%
X118500000Y-79400000D03*
%TO.N,unconnected-(U1-RXD0-Pad34)*%
X121040000Y-79400000D03*
%TO.N,unconnected-(U1-TXD0-Pad35)*%
X123580000Y-79400000D03*
%TO.N,/SCK*%
X126120000Y-79400000D03*
%TO.N,/GPIO23*%
X128660000Y-79400000D03*
%TO.N,GND*%
X131200000Y-79400000D03*
%TD*%
D16*
%TO.N,Net-(J7-Pin_1)*%
%TO.C,J7*%
X193000000Y-92000000D03*
D17*
%TO.N,Net-(J7-Pin_2)*%
X193000000Y-93000000D03*
%TO.N,Net-(J7-Pin_3)*%
X193000000Y-94000000D03*
%TO.N,Net-(J7-Pin_4)*%
X193000000Y-95000000D03*
%TO.N,Net-(J7-Pin_5)*%
X193000000Y-96000000D03*
%TO.N,Net-(J7-Pin_6)*%
X193000000Y-97000000D03*
%TO.N,Net-(J7-Pin_7)*%
X193000000Y-98000000D03*
%TO.N,Net-(J7-Pin_8)*%
X193000000Y-99000000D03*
%TD*%
D16*
%TO.N,Net-(J8-Pin_1)*%
%TO.C,J8*%
X89000000Y-113000000D03*
D17*
%TO.N,Net-(J8-Pin_2)*%
X89000000Y-114000000D03*
%TO.N,Net-(J8-Pin_3)*%
X89000000Y-115000000D03*
%TO.N,Net-(J8-Pin_4)*%
X89000000Y-116000000D03*
%TO.N,Net-(J8-Pin_5)*%
X89000000Y-117000000D03*
%TO.N,Net-(J8-Pin_6)*%
X89000000Y-118000000D03*
%TO.N,Net-(J8-Pin_7)*%
X89000000Y-119000000D03*
%TO.N,Net-(J8-Pin_8)*%
X89000000Y-120000000D03*
%TD*%
D16*
%TO.N,Net-(J9-Pin_1)*%
%TO.C,J9*%
X88350000Y-90000000D03*
D17*
%TO.N,Net-(J9-Pin_2)*%
X88350000Y-91000000D03*
%TO.N,Net-(J9-Pin_3)*%
X88350000Y-92000000D03*
%TO.N,Net-(J9-Pin_4)*%
X88350000Y-93000000D03*
%TO.N,Net-(J9-Pin_5)*%
X88350000Y-94000000D03*
%TO.N,Net-(J9-Pin_6)*%
X88350000Y-95000000D03*
%TO.N,Net-(J9-Pin_7)*%
X88350000Y-96000000D03*
%TO.N,Net-(J9-Pin_8)*%
X88350000Y-97000000D03*
%TD*%
D16*
%TO.N,Net-(J10-Pin_1)*%
%TO.C,J10*%
X193000000Y-112915000D03*
D17*
%TO.N,Net-(J10-Pin_2)*%
X193000000Y-113915000D03*
%TO.N,Net-(J10-Pin_3)*%
X193000000Y-114915000D03*
%TO.N,Net-(J10-Pin_4)*%
X193000000Y-115915000D03*
%TO.N,Net-(J10-Pin_5)*%
X193000000Y-116915000D03*
%TO.N,Net-(J10-Pin_6)*%
X193000000Y-117915000D03*
%TO.N,Net-(J10-Pin_7)*%
X193000000Y-118915000D03*
%TO.N,Net-(J10-Pin_8)*%
X193000000Y-119915000D03*
%TD*%
D18*
%TO.N,GND*%
%TO.C,H4*%
X83600000Y-154302900D03*
X84302944Y-152605844D03*
X84302944Y-155999956D03*
X86000000Y-151902900D03*
D19*
X86000000Y-154302900D03*
D18*
X86000000Y-156702900D03*
X87697056Y-152605844D03*
X87697056Y-155999956D03*
X88400000Y-154302900D03*
%TD*%
D10*
%TO.N,Net-(J10-Pin_2)*%
%TO.C,U10*%
X178875000Y-112840000D03*
D11*
%TO.N,Net-(J10-Pin_3)*%
X176335000Y-112840000D03*
%TO.N,Net-(J10-Pin_4)*%
X173795000Y-112840000D03*
%TO.N,Net-(J10-Pin_5)*%
X171255000Y-112840000D03*
%TO.N,Net-(J10-Pin_6)*%
X168715000Y-112840000D03*
%TO.N,Net-(J10-Pin_7)*%
X166175000Y-112840000D03*
%TO.N,Net-(J10-Pin_8)*%
X163635000Y-112840000D03*
%TO.N,GND*%
X161095000Y-112840000D03*
%TO.N,unconnected-(U10-QH'-Pad9)*%
X161095000Y-123000000D03*
%TO.N,GND*%
X163635000Y-123000000D03*
%TO.N,/CLATCH_PIN*%
X166175000Y-123000000D03*
%TO.N,/CCLOCK_PIN*%
X168715000Y-123000000D03*
%TO.N,GND*%
X171255000Y-123000000D03*
%TO.N,Net-(U10-SER)*%
X173795000Y-123000000D03*
%TO.N,Net-(J10-Pin_1)*%
X176335000Y-123000000D03*
%TO.N,+5V*%
X178875000Y-123000000D03*
%TD*%
D18*
%TO.N,GND*%
%TO.C,H1*%
X83600000Y-45000000D03*
X84302944Y-43302944D03*
X84302944Y-46697056D03*
X86000000Y-42600000D03*
D19*
X86000000Y-45000000D03*
D18*
X86000000Y-47400000D03*
X87697056Y-43302944D03*
X87697056Y-46697056D03*
X88400000Y-45000000D03*
%TD*%
D20*
%TO.N,GND*%
%TO.C,Brd1*%
X170280000Y-54800000D03*
%TO.N,+3.3V*%
X172820000Y-54800000D03*
%TO.N,/SCK*%
X175360000Y-54800000D03*
%TO.N,/SDA*%
X177900000Y-54800000D03*
%TD*%
D16*
%TO.N,+5V*%
%TO.C,J4*%
X107000000Y-44000000D03*
D17*
X107000000Y-43000000D03*
%TO.N,/GPIO18*%
X108000000Y-44000000D03*
%TO.N,/GPIO33*%
X108000000Y-43000000D03*
%TO.N,/GPIO19*%
X109000000Y-44000000D03*
%TO.N,/GPIO34*%
X109000000Y-43000000D03*
%TO.N,/GPIO23*%
X110000000Y-44000000D03*
%TO.N,/GPIO35*%
X110000000Y-43000000D03*
%TO.N,GND*%
X111000000Y-44000000D03*
X111000000Y-43000000D03*
%TD*%
D18*
%TO.N,GND*%
%TO.C,H3*%
X192600000Y-154302900D03*
X193302944Y-152605844D03*
X193302944Y-155999956D03*
X195000000Y-151902900D03*
D19*
X195000000Y-154302900D03*
D18*
X195000000Y-156702900D03*
X196697056Y-152605844D03*
X196697056Y-155999956D03*
X197400000Y-154302900D03*
%TD*%
%TO.N,GND*%
%TO.C,H2*%
X192600000Y-45000000D03*
X193302944Y-43302944D03*
X193302944Y-46697056D03*
X195000000Y-42600000D03*
D19*
X195000000Y-45000000D03*
D18*
X195000000Y-47400000D03*
X196697056Y-43302944D03*
X196697056Y-46697056D03*
X197400000Y-45000000D03*
%TD*%
D10*
%TO.N,Net-(J8-Pin_2)*%
%TO.C,U8*%
X101220000Y-122000000D03*
D11*
%TO.N,Net-(J8-Pin_3)*%
X103760000Y-122000000D03*
%TO.N,Net-(J8-Pin_4)*%
X106300000Y-122000000D03*
%TO.N,Net-(J8-Pin_5)*%
X108840000Y-122000000D03*
%TO.N,Net-(J8-Pin_6)*%
X111380000Y-122000000D03*
%TO.N,Net-(J8-Pin_7)*%
X113920000Y-122000000D03*
%TO.N,Net-(J8-Pin_8)*%
X116460000Y-122000000D03*
%TO.N,GND*%
X119000000Y-122000000D03*
%TO.N,unconnected-(U8-QH'-Pad9)*%
X119000000Y-111840000D03*
%TO.N,GND*%
X116460000Y-111840000D03*
%TO.N,/LATCH_PIN*%
X113920000Y-111840000D03*
%TO.N,/CLOCK_PIN*%
X111380000Y-111840000D03*
%TO.N,GND*%
X108840000Y-111840000D03*
%TO.N,Net-(U7-QH')*%
X106300000Y-111840000D03*
%TO.N,Net-(J8-Pin_1)*%
X103760000Y-111840000D03*
%TO.N,+5V*%
X101220000Y-111840000D03*
%TD*%
D10*
%TO.N,Net-(J7-Pin_2)*%
%TO.C,U9*%
X177875000Y-87840000D03*
D11*
%TO.N,Net-(J7-Pin_3)*%
X175335000Y-87840000D03*
%TO.N,Net-(J7-Pin_4)*%
X172795000Y-87840000D03*
%TO.N,Net-(J7-Pin_5)*%
X170255000Y-87840000D03*
%TO.N,Net-(J7-Pin_6)*%
X167715000Y-87840000D03*
%TO.N,Net-(J7-Pin_7)*%
X165175000Y-87840000D03*
%TO.N,Net-(J7-Pin_8)*%
X162635000Y-87840000D03*
%TO.N,GND*%
X160095000Y-87840000D03*
%TO.N,Net-(U10-SER)*%
X160095000Y-98000000D03*
%TO.N,GND*%
X162635000Y-98000000D03*
%TO.N,/CLATCH_PIN*%
X165175000Y-98000000D03*
%TO.N,/CCLOCK_PIN*%
X167715000Y-98000000D03*
%TO.N,GND*%
X170255000Y-98000000D03*
%TO.N,/DATA_B*%
X172795000Y-98000000D03*
%TO.N,Net-(J7-Pin_1)*%
X175335000Y-98000000D03*
%TO.N,+5V*%
X177875000Y-98000000D03*
%TD*%
D10*
%TO.N,Net-(J9-Pin_2)*%
%TO.C,U7*%
X100220000Y-98160000D03*
D11*
%TO.N,Net-(J9-Pin_3)*%
X102760000Y-98160000D03*
%TO.N,Net-(J9-Pin_4)*%
X105300000Y-98160000D03*
%TO.N,Net-(J9-Pin_5)*%
X107840000Y-98160000D03*
%TO.N,Net-(J9-Pin_6)*%
X110380000Y-98160000D03*
%TO.N,Net-(J9-Pin_7)*%
X112920000Y-98160000D03*
%TO.N,Net-(J9-Pin_8)*%
X115460000Y-98160000D03*
%TO.N,GND*%
X118000000Y-98160000D03*
%TO.N,Net-(U7-QH')*%
X118000000Y-88000000D03*
%TO.N,GND*%
X115460000Y-88000000D03*
%TO.N,/LATCH_PIN*%
X112920000Y-88000000D03*
%TO.N,/CLOCK_PIN*%
X110380000Y-88000000D03*
%TO.N,GND*%
X107840000Y-88000000D03*
%TO.N,/DATA_A*%
X105300000Y-88000000D03*
%TO.N,Net-(J9-Pin_1)*%
X102760000Y-88000000D03*
%TO.N,+5V*%
X100220000Y-88000000D03*
%TD*%
D16*
%TO.N,Net-(J3-Pin_1)*%
%TO.C,J3*%
X193000000Y-136000000D03*
D17*
%TO.N,Net-(J3-Pin_2)*%
X193000000Y-137000000D03*
%TO.N,Net-(J3-Pin_3)*%
X193000000Y-138000000D03*
%TO.N,Net-(J3-Pin_4)*%
X193000000Y-139000000D03*
%TO.N,Net-(J3-Pin_5)*%
X193000000Y-140000000D03*
%TD*%
D12*
%TO.N,Net-(D2C-A)*%
%TO.C,U17*%
X117380000Y-154302900D03*
%TO.N,Net-(D2B-A)*%
X119920000Y-154302900D03*
D13*
%TO.N,GND*%
X127540000Y-154302900D03*
D12*
%TO.N,Net-(D2A-A)*%
X122460000Y-154302900D03*
%TO.N,+5V*%
X125000000Y-154302900D03*
%TD*%
D21*
%TO.N,+5V*%
%TO.C,J2*%
X142545000Y-46305000D03*
D22*
%TO.N,GND*%
X137465000Y-46305000D03*
%TD*%
D23*
%TO.N,GND*%
X109706800Y-146816500D03*
%TO.N,/DT*%
X137931200Y-136474600D03*
X115529900Y-85272300D03*
%TO.N,/CLK*%
X135135600Y-131272500D03*
%TO.N,/SELECT_SW*%
X84400000Y-136705100D03*
%TO.N,/OUTPUTB*%
X97140800Y-136239500D03*
%TO.N,/CLATCH_PIN*%
X120066700Y-65507000D03*
X143542300Y-82944000D03*
%TO.N,/LED_BUILT_IN*%
X152002300Y-48435000D03*
%TO.N,Net-(D3C-A)*%
X154561900Y-140390600D03*
X135800600Y-133514700D03*
%TO.N,Net-(D3B-A)*%
X142452500Y-143599500D03*
%TO.N,Net-(D3A-A)*%
X129960900Y-144885700D03*
X136963700Y-134051700D03*
%TO.N,Net-(D2C-A)*%
X107679800Y-141397300D03*
%TO.N,Net-(D2A-A)*%
X103020800Y-132748900D03*
X92345700Y-137723700D03*
%TO.N,Net-(D3C-K)*%
X138273200Y-133956000D03*
X148617600Y-141591100D03*
%TO.N,Net-(D2C-K)*%
X98503000Y-133406100D03*
X109926200Y-138726800D03*
%TO.N,+5V*%
X108620300Y-139734300D03*
X95829700Y-136904100D03*
X83335800Y-138377200D03*
X121345500Y-138306100D03*
X135143800Y-138080100D03*
X146484400Y-140399900D03*
%TD*%
D24*
%TO.N,GND*%
X115460000Y-88000000D02*
X115460000Y-86599000D01*
X114031900Y-46305000D02*
X111726900Y-44000000D01*
X137465000Y-46305000D02*
X114031900Y-46305000D01*
X195702900Y-43302900D02*
X195000000Y-42600000D01*
X196697100Y-43302900D02*
X195702900Y-43302900D01*
X194297100Y-43302900D02*
X195000000Y-42600000D01*
X193302900Y-43302900D02*
X194297100Y-43302900D01*
X86702900Y-43302900D02*
X86000000Y-42600000D01*
X87697100Y-43302900D02*
X86702900Y-43302900D01*
X86994200Y-47400000D02*
X87697100Y-46697100D01*
X86000000Y-47400000D02*
X86994200Y-47400000D01*
X109080000Y-154302900D02*
X107812900Y-154302900D01*
X86994200Y-156702900D02*
X87697100Y-156000000D01*
X86000000Y-156702900D02*
X86994200Y-156702900D01*
X115460000Y-86599000D02*
X115460000Y-86499800D01*
X128873300Y-81726700D02*
X131200000Y-79400000D01*
X120233100Y-81726700D02*
X128873300Y-81726700D01*
X115460000Y-86499800D02*
X120233100Y-81726700D01*
X115458300Y-86498100D02*
X107840000Y-86498100D01*
X115460000Y-86499800D02*
X115458300Y-86498100D01*
X107840000Y-88000000D02*
X107840000Y-86498100D01*
X107812900Y-154857300D02*
X107812900Y-154302900D01*
X106670200Y-156000000D02*
X107812900Y-154857300D01*
X87697100Y-156000000D02*
X106670200Y-156000000D01*
X169753100Y-121498100D02*
X171255000Y-123000000D01*
X163635000Y-121498100D02*
X169753100Y-121498100D01*
X163635000Y-123000000D02*
X163635000Y-121498100D01*
X195994200Y-156702900D02*
X196697100Y-156000000D01*
X195000000Y-156702900D02*
X195994200Y-156702900D01*
X194297100Y-46697100D02*
X195000000Y-47400000D01*
X193302900Y-46697100D02*
X194297100Y-46697100D01*
X86702900Y-153600000D02*
X86000000Y-154302900D01*
X86702900Y-152605800D02*
X86702900Y-153600000D01*
X87697100Y-152605800D02*
X86702900Y-152605800D01*
X86702900Y-152605800D02*
X86000000Y-151902900D01*
X85297100Y-44297100D02*
X86000000Y-45000000D01*
X85297100Y-43302900D02*
X85297100Y-44297100D01*
X84302900Y-43302900D02*
X85297100Y-43302900D01*
X85297100Y-43302900D02*
X86000000Y-42600000D01*
X111000000Y-44000000D02*
X111363500Y-44000000D01*
X111363500Y-44000000D02*
X111726900Y-44000000D01*
X111090400Y-43726900D02*
X111000000Y-43726900D01*
X111363500Y-44000000D02*
X111090400Y-43726900D01*
X111000000Y-43000000D02*
X111000000Y-43726900D01*
X116460000Y-110338100D02*
X108840000Y-110338100D01*
X116460000Y-111840000D02*
X116460000Y-110338100D01*
X108840000Y-111840000D02*
X108840000Y-110338100D01*
X118000000Y-108798100D02*
X116460000Y-110338100D01*
X118000000Y-98160000D02*
X118000000Y-108798100D01*
X111614200Y-155570000D02*
X110347100Y-154302900D01*
X125560200Y-155570000D02*
X111614200Y-155570000D01*
X126272900Y-154857300D02*
X125560200Y-155570000D01*
X126272900Y-154302900D02*
X126272900Y-154857300D01*
X127540000Y-154302900D02*
X126272900Y-154302900D01*
X109080000Y-154302900D02*
X110347100Y-154302900D01*
X192600000Y-46697100D02*
X192600000Y-45000000D01*
X178382900Y-46697100D02*
X192600000Y-46697100D01*
X170280000Y-54800000D02*
X178382900Y-46697100D01*
X192600000Y-46697100D02*
X193302900Y-46697100D01*
X195702900Y-45702900D02*
X195000000Y-45000000D01*
X195702900Y-46697100D02*
X195702900Y-45702900D01*
X196697100Y-46697100D02*
X195702900Y-46697100D01*
X195702900Y-46697100D02*
X195000000Y-47400000D01*
X165598000Y-142498100D02*
X171620000Y-142498100D01*
X164096100Y-144000000D02*
X165598000Y-142498100D01*
X164000000Y-144000000D02*
X164096100Y-144000000D01*
X171620000Y-144000000D02*
X171620000Y-142498100D01*
X171620000Y-144000000D02*
X171620000Y-145501900D01*
X192600000Y-152605800D02*
X192600000Y-154302900D01*
X178723900Y-152605800D02*
X192600000Y-152605800D01*
X171620000Y-145501900D02*
X178723900Y-152605800D01*
X192600000Y-152605800D02*
X193302900Y-152605800D01*
X195000000Y-151902900D02*
X195000000Y-152254300D01*
X196345600Y-152254300D02*
X196697100Y-152605800D01*
X195000000Y-152254300D02*
X196345600Y-152254300D01*
X194648500Y-153951400D02*
X195000000Y-154302900D01*
X194648500Y-152605800D02*
X194648500Y-153951400D01*
X193302900Y-152605800D02*
X194648500Y-152605800D01*
X194648500Y-152605800D02*
X195000000Y-152254300D01*
%TO.N,Net-(U10-SER)*%
X172685100Y-121498100D02*
X173795000Y-121498100D01*
X164849000Y-113662000D02*
X172685100Y-121498100D01*
X164849000Y-104255900D02*
X164849000Y-113662000D01*
X160095000Y-99501900D02*
X164849000Y-104255900D01*
X160095000Y-98000000D02*
X160095000Y-99501900D01*
X173795000Y-123000000D02*
X173795000Y-121498100D01*
%TO.N,/DT*%
X111672300Y-85272300D02*
X105800000Y-79400000D01*
X115529900Y-85272300D02*
X111672300Y-85272300D01*
%TO.N,/CCLOCK_PIN*%
X167715000Y-98000000D02*
X167715000Y-99501900D01*
X164716300Y-99501900D02*
X167715000Y-99501900D01*
X163905000Y-98690600D02*
X164716300Y-99501900D01*
X163905000Y-97276500D02*
X163905000Y-98690600D01*
X161424100Y-94795600D02*
X163905000Y-97276500D01*
X112676800Y-94795600D02*
X161424100Y-94795600D01*
X106570000Y-88688800D02*
X112676800Y-94795600D01*
X106570000Y-85250000D02*
X106570000Y-88688800D01*
X100720000Y-79400000D02*
X106570000Y-85250000D01*
%TO.N,/SELECT_SW*%
X84400000Y-92667000D02*
X84400000Y-136705100D01*
X97667000Y-79400000D02*
X84400000Y-92667000D01*
X98180000Y-79400000D02*
X97667000Y-79400000D01*
%TO.N,/DATA_B*%
X172141500Y-95844600D02*
X172795000Y-96498100D01*
X165087800Y-95844600D02*
X172141500Y-95844600D01*
X147566600Y-78323400D02*
X165087800Y-95844600D01*
X130696800Y-78323400D02*
X147566600Y-78323400D01*
X130123600Y-78896600D02*
X130696800Y-78323400D01*
X130123600Y-79456500D02*
X130123600Y-78896600D01*
X128638000Y-80942100D02*
X130123600Y-79456500D01*
X118482000Y-80942100D02*
X128638000Y-80942100D01*
X117230000Y-79690100D02*
X118482000Y-80942100D01*
X117230000Y-70510000D02*
X117230000Y-79690100D01*
X100720000Y-54000000D02*
X117230000Y-70510000D01*
X172795000Y-98000000D02*
X172795000Y-96498100D01*
%TO.N,/CLATCH_PIN*%
X114767000Y-65507000D02*
X120066700Y-65507000D01*
X103260000Y-54000000D02*
X114767000Y-65507000D01*
X165175000Y-98000000D02*
X165175000Y-96498100D01*
X163752700Y-96498100D02*
X165175000Y-96498100D01*
X150198600Y-82944000D02*
X163752700Y-96498100D01*
X143542300Y-82944000D02*
X150198600Y-82944000D01*
%TO.N,/LED_BUILT_IN*%
X101205000Y-48435000D02*
X152002300Y-48435000D01*
X95640000Y-54000000D02*
X101205000Y-48435000D01*
%TO.N,Net-(J10-Pin_8)*%
X163635000Y-112840000D02*
X163635000Y-114341900D01*
X193000000Y-119915000D02*
X192273100Y-119915000D01*
X192273100Y-119915100D02*
X192273100Y-119915000D01*
X177432900Y-119915100D02*
X192273100Y-119915100D01*
X174896900Y-122451100D02*
X177432900Y-119915100D01*
X174896900Y-123856500D02*
X174896900Y-122451100D01*
X174251500Y-124501900D02*
X174896900Y-123856500D01*
X173338500Y-124501900D02*
X174251500Y-124501900D01*
X172693100Y-123856500D02*
X173338500Y-124501900D01*
X172693100Y-122474700D02*
X172693100Y-123856500D01*
X164560300Y-114341900D02*
X172693100Y-122474700D01*
X163635000Y-114341900D02*
X164560300Y-114341900D01*
%TO.N,Net-(J10-Pin_7)*%
X166175000Y-112840000D02*
X166175000Y-114341900D01*
X170748100Y-118915000D02*
X166175000Y-114341900D01*
X193000000Y-118915000D02*
X170748100Y-118915000D01*
%TO.N,Net-(J10-Pin_6)*%
X172288100Y-117915000D02*
X168715000Y-114341900D01*
X193000000Y-117915000D02*
X172288100Y-117915000D01*
X168715000Y-112840000D02*
X168715000Y-114341900D01*
%TO.N,Net-(J10-Pin_5)*%
X173828100Y-116915000D02*
X171255000Y-114341900D01*
X193000000Y-116915000D02*
X173828100Y-116915000D01*
X171255000Y-112840000D02*
X171255000Y-114341900D01*
%TO.N,Net-(J10-Pin_4)*%
X175368100Y-115915000D02*
X173795000Y-114341900D01*
X193000000Y-115915000D02*
X175368100Y-115915000D01*
X173795000Y-112840000D02*
X173795000Y-114341900D01*
%TO.N,Net-(J10-Pin_3)*%
X176908100Y-114915000D02*
X176335000Y-114341900D01*
X193000000Y-114915000D02*
X176908100Y-114915000D01*
X176335000Y-112840000D02*
X176335000Y-114341900D01*
%TO.N,Net-(J10-Pin_2)*%
X191846200Y-114341900D02*
X178875000Y-114341900D01*
X192273100Y-113915000D02*
X191846200Y-114341900D01*
X193000000Y-113915000D02*
X192273100Y-113915000D01*
X178875000Y-112840000D02*
X178875000Y-114341900D01*
%TO.N,Net-(J10-Pin_1)*%
X178163900Y-121171100D02*
X176335000Y-123000000D01*
X192816100Y-121171100D02*
X178163900Y-121171100D01*
X193726900Y-120260300D02*
X192816100Y-121171100D01*
X193726900Y-112915000D02*
X193726900Y-120260300D01*
X193000000Y-112915000D02*
X193726900Y-112915000D01*
%TO.N,Net-(J9-Pin_8)*%
X88350000Y-97000000D02*
X89076900Y-97000000D01*
X115460000Y-98160000D02*
X115460000Y-96658100D01*
X112458200Y-96658100D02*
X115460000Y-96658100D01*
X111650000Y-97466300D02*
X112458200Y-96658100D01*
X111650000Y-98861000D02*
X111650000Y-97466300D01*
X109622300Y-100888700D02*
X111650000Y-98861000D01*
X92965600Y-100888700D02*
X109622300Y-100888700D01*
X89076900Y-97000000D02*
X92965600Y-100888700D01*
%TO.N,Net-(J9-Pin_7)*%
X112920000Y-98160000D02*
X112920000Y-99661900D01*
X88350000Y-96000000D02*
X87623100Y-96000000D01*
X111277500Y-101304400D02*
X112920000Y-99661900D01*
X91581300Y-101304400D02*
X111277500Y-101304400D01*
X87623100Y-97346200D02*
X91581300Y-101304400D01*
X87623100Y-96000000D02*
X87623100Y-97346200D01*
%TO.N,Net-(J9-Pin_6)*%
X93394500Y-95000000D02*
X88350000Y-95000000D01*
X98870700Y-100476200D02*
X93394500Y-95000000D01*
X108063800Y-100476200D02*
X98870700Y-100476200D01*
X110380000Y-98160000D02*
X108063800Y-100476200D01*
%TO.N,Net-(J9-Pin_5)*%
X107840000Y-98160000D02*
X107840000Y-99661900D01*
X92962800Y-94000000D02*
X88350000Y-94000000D01*
X99026600Y-100063800D02*
X92962800Y-94000000D01*
X107438100Y-100063800D02*
X99026600Y-100063800D01*
X107840000Y-99661900D02*
X107438100Y-100063800D01*
%TO.N,Net-(J9-Pin_4)*%
X92599800Y-93000000D02*
X88350000Y-93000000D01*
X99261700Y-99661900D02*
X92599800Y-93000000D01*
X105300000Y-99661900D02*
X99261700Y-99661900D01*
X105300000Y-98160000D02*
X105300000Y-99661900D01*
%TO.N,Net-(J9-Pin_3)*%
X98101900Y-92000000D02*
X88350000Y-92000000D01*
X102760000Y-96658100D02*
X98101900Y-92000000D01*
X102760000Y-98160000D02*
X102760000Y-96658100D01*
%TO.N,Net-(J9-Pin_1)*%
X89575000Y-89501900D02*
X89076900Y-90000000D01*
X102760000Y-89501900D02*
X89575000Y-89501900D01*
X102760000Y-88000000D02*
X102760000Y-89501900D01*
X88350000Y-90000000D02*
X89076900Y-90000000D01*
%TO.N,Net-(J8-Pin_8)*%
X116460000Y-122000000D02*
X116460000Y-120498100D01*
X89000000Y-120000000D02*
X89726900Y-120000000D01*
X90436600Y-119290300D02*
X89726900Y-120000000D01*
X115252200Y-119290300D02*
X90436600Y-119290300D01*
X116460000Y-120498100D02*
X115252200Y-119290300D01*
%TO.N,Net-(J8-Pin_7)*%
X113920000Y-122000000D02*
X113920000Y-120498100D01*
X89000000Y-119000000D02*
X88273100Y-119000000D01*
X88273100Y-120303400D02*
X88273100Y-119000000D01*
X88717300Y-120747600D02*
X88273100Y-120303400D01*
X89870800Y-120747600D02*
X88717300Y-120747600D01*
X90926200Y-119692200D02*
X89870800Y-120747600D01*
X113114100Y-119692200D02*
X90926200Y-119692200D01*
X113920000Y-120498100D02*
X113114100Y-119692200D01*
%TO.N,Net-(J8-Pin_6)*%
X87871000Y-118402100D02*
X88273100Y-118000000D01*
X87871000Y-120472800D02*
X87871000Y-118402100D01*
X88567000Y-121168800D02*
X87871000Y-120472800D01*
X97908900Y-121168800D02*
X88567000Y-121168800D01*
X98983600Y-120094100D02*
X97908900Y-121168800D01*
X110976000Y-120094100D02*
X98983600Y-120094100D01*
X111380000Y-120498100D02*
X110976000Y-120094100D01*
X111380000Y-122000000D02*
X111380000Y-120498100D01*
X89000000Y-118000000D02*
X88273100Y-118000000D01*
%TO.N,Net-(J8-Pin_5)*%
X89000000Y-117000000D02*
X88273100Y-117000000D01*
X108840000Y-122000000D02*
X108840000Y-120498100D01*
X99726600Y-120498100D02*
X108840000Y-120498100D01*
X98654000Y-121570700D02*
X99726600Y-120498100D01*
X88400600Y-121570700D02*
X98654000Y-121570700D01*
X87469100Y-120639200D02*
X88400600Y-121570700D01*
X87469100Y-117804000D02*
X87469100Y-120639200D01*
X88273100Y-117000000D02*
X87469100Y-117804000D01*
%TO.N,Net-(J8-Pin_4)*%
X89000000Y-116000000D02*
X88273100Y-116000000D01*
X106300000Y-122000000D02*
X106300000Y-123501900D01*
X89763500Y-123501900D02*
X106300000Y-123501900D01*
X87067200Y-120805600D02*
X89763500Y-123501900D01*
X87067200Y-117205900D02*
X87067200Y-120805600D01*
X88273100Y-116000000D02*
X87067200Y-117205900D01*
%TO.N,Net-(J8-Pin_1)*%
X99845000Y-113000000D02*
X89000000Y-113000000D01*
X100186900Y-113341900D02*
X99845000Y-113000000D01*
X103760000Y-113341900D02*
X100186900Y-113341900D01*
X103760000Y-111840000D02*
X103760000Y-113341900D01*
%TO.N,Net-(J7-Pin_8)*%
X193000000Y-99000000D02*
X192273100Y-99000000D01*
X162635000Y-87840000D02*
X162635000Y-89341900D01*
X167555100Y-94262000D02*
X162635000Y-89341900D01*
X187535100Y-94262000D02*
X167555100Y-94262000D01*
X192273100Y-99000000D02*
X187535100Y-94262000D01*
%TO.N,Net-(J7-Pin_7)*%
X193000000Y-98000000D02*
X192273100Y-98000000D01*
X165175000Y-87840000D02*
X165175000Y-89341900D01*
X187018800Y-92745700D02*
X192273100Y-98000000D01*
X168578800Y-92745700D02*
X187018800Y-92745700D01*
X165175000Y-89341900D02*
X168578800Y-92745700D01*
%TO.N,Net-(J7-Pin_6)*%
X193000000Y-97000000D02*
X192273100Y-97000000D01*
X167715000Y-87840000D02*
X167715000Y-89341900D01*
X186047700Y-90774600D02*
X192273100Y-97000000D01*
X169147700Y-90774600D02*
X186047700Y-90774600D01*
X167715000Y-89341900D02*
X169147700Y-90774600D01*
%TO.N,Net-(J7-Pin_5)*%
X171148700Y-90235600D02*
X170255000Y-89341900D01*
X186508700Y-90235600D02*
X171148700Y-90235600D01*
X192273100Y-96000000D02*
X186508700Y-90235600D01*
X193000000Y-96000000D02*
X192273100Y-96000000D01*
X170255000Y-87840000D02*
X170255000Y-89341900D01*
%TO.N,Net-(J7-Pin_4)*%
X193000000Y-95000000D02*
X192273100Y-95000000D01*
X172795000Y-87840000D02*
X172795000Y-89341900D01*
X173198400Y-89745300D02*
X172795000Y-89341900D01*
X187018400Y-89745300D02*
X173198400Y-89745300D01*
X192273100Y-95000000D02*
X187018400Y-89745300D01*
%TO.N,Net-(J7-Pin_3)*%
X193000000Y-94000000D02*
X192273100Y-94000000D01*
X175335000Y-87840000D02*
X175335000Y-89341900D01*
X187615000Y-89341900D02*
X192273100Y-94000000D01*
X175335000Y-89341900D02*
X187615000Y-89341900D01*
%TO.N,Net-(J7-Pin_2)*%
X187113100Y-87840000D02*
X177875000Y-87840000D01*
X192273100Y-93000000D02*
X187113100Y-87840000D01*
X193000000Y-93000000D02*
X192273100Y-93000000D01*
%TO.N,Net-(J3-Pin_5)*%
X176278100Y-140000000D02*
X171620000Y-135341900D01*
X193000000Y-140000000D02*
X176278100Y-140000000D01*
X171620000Y-133840000D02*
X171620000Y-135341900D01*
%TO.N,Net-(J3-Pin_4)*%
X174160000Y-133840000D02*
X174160000Y-135341900D01*
X177818100Y-139000000D02*
X174160000Y-135341900D01*
X193000000Y-139000000D02*
X177818100Y-139000000D01*
%TO.N,Net-(J3-Pin_3)*%
X179358100Y-138000000D02*
X176700000Y-135341900D01*
X193000000Y-138000000D02*
X179358100Y-138000000D01*
X176700000Y-133840000D02*
X176700000Y-135341900D01*
%TO.N,Net-(J3-Pin_2)*%
X190615000Y-135341900D02*
X179240000Y-135341900D01*
X192273100Y-137000000D02*
X190615000Y-135341900D01*
X193000000Y-137000000D02*
X192273100Y-137000000D01*
X179240000Y-133840000D02*
X179240000Y-135341900D01*
%TO.N,Net-(D3C-A)*%
X126026900Y-143288400D02*
X135800600Y-133514700D01*
X109934500Y-143288400D02*
X126026900Y-143288400D01*
X98920000Y-154302900D02*
X109934500Y-143288400D01*
X136011200Y-133304100D02*
X135800600Y-133514700D01*
X147475400Y-133304100D02*
X136011200Y-133304100D01*
X154561900Y-140390600D02*
X147475400Y-133304100D01*
%TO.N,Net-(D3B-A)*%
X142025000Y-144027000D02*
X142452500Y-143599500D01*
X111532900Y-144027000D02*
X142025000Y-144027000D01*
X101460000Y-154099900D02*
X111532900Y-144027000D01*
X101460000Y-154302900D02*
X101460000Y-154099900D01*
%TO.N,Net-(D3A-A)*%
X113417200Y-144885700D02*
X129960900Y-144885700D01*
X104000000Y-154302900D02*
X113417200Y-144885700D01*
%TO.N,Net-(D2A-A)*%
X97320500Y-132748900D02*
X103020800Y-132748900D01*
X92345700Y-137723700D02*
X97320500Y-132748900D01*
%TO.N,Net-(D3C-K)*%
X140982500Y-133956000D02*
X148617600Y-141591100D01*
X138273200Y-133956000D02*
X140982500Y-133956000D01*
%TO.N,Net-(D2C-K)*%
X103823700Y-138726800D02*
X109926200Y-138726800D01*
X98503000Y-133406100D02*
X103823700Y-138726800D01*
%TO.N,+3.3V*%
X131200000Y-54000000D02*
X132266900Y-54000000D01*
X172820000Y-54800000D02*
X171718100Y-54800000D01*
X171548400Y-54969700D02*
X171718100Y-54800000D01*
X171548300Y-54969700D02*
X171548400Y-54969700D01*
X171548300Y-55290200D02*
X171548300Y-54969700D01*
X170736500Y-56102000D02*
X171548300Y-55290200D01*
X134368900Y-56102000D02*
X170736500Y-56102000D01*
X132266900Y-54000000D02*
X134368900Y-56102000D01*
%TO.N,+5V*%
X136911200Y-42273100D02*
X107000000Y-42273100D01*
X140943100Y-46305000D02*
X136911200Y-42273100D01*
X142545000Y-46305000D02*
X140943100Y-46305000D01*
X107000000Y-43000000D02*
X107000000Y-42273100D01*
X94430200Y-138377200D02*
X83335800Y-138377200D01*
X95829700Y-136977700D02*
X94430200Y-138377200D01*
X95829700Y-136904100D02*
X95829700Y-136977700D01*
X119917300Y-139734300D02*
X108620300Y-139734300D01*
X121345500Y-138306100D02*
X119917300Y-139734300D01*
X144164600Y-138080100D02*
X146484400Y-140399900D01*
X135143800Y-138080100D02*
X144164600Y-138080100D01*
X179240000Y-144000000D02*
X179240000Y-142498100D01*
X148331400Y-142246900D02*
X146484400Y-140399900D01*
X165195900Y-142246900D02*
X148331400Y-142246900D01*
X165348100Y-142094700D02*
X165195900Y-142246900D01*
X178836600Y-142094700D02*
X165348100Y-142094700D01*
X179240000Y-142498100D02*
X178836600Y-142094700D01*
%TO.N,/SCK*%
X174258100Y-55128300D02*
X174258100Y-54800000D01*
X172738300Y-56648100D02*
X174258100Y-55128300D01*
X148871900Y-56648100D02*
X172738300Y-56648100D01*
X126120000Y-79400000D02*
X148871900Y-56648100D01*
X175360000Y-54800000D02*
X174258100Y-54800000D01*
%TO.N,/SDA*%
X177900000Y-54800000D02*
X176798100Y-54800000D01*
X119615400Y-80515400D02*
X118500000Y-79400000D01*
X126532300Y-80515400D02*
X119615400Y-80515400D01*
X127390000Y-79657700D02*
X126532300Y-80515400D01*
X127390000Y-79150100D02*
X127390000Y-79657700D01*
X135565300Y-70974800D02*
X127390000Y-79150100D01*
X160951600Y-70974800D02*
X135565300Y-70974800D01*
X176798100Y-55128300D02*
X160951600Y-70974800D01*
X176798100Y-54800000D02*
X176798100Y-55128300D01*
%TD*%
M02*
