M48
; DRILL file {KiCad 7.0.10} date Sat 03 Feb 2024 10:52:13 PM IST
; FORMAT={-:-/ absolute / inch / decimal}
; #@! TF.CreationDate,2024-02-03T22:52:13+05:30
; #@! TF.GenerationSoftware,Kicad,Pcbnew,7.0.10
; #@! TF.FileFunction,Plated,1,4,PTH
FMAT,2
INCH
; #@! TA.AperFunction,Plated,PTH,ViaDrill
T1C0.0118
; #@! TA.AperFunction,Plated,PTH,ComponentDrill
T2C0.0197
; #@! TA.AperFunction,Plated,PTH,ComponentDrill
T3C0.0315
; #@! TA.AperFunction,Plated,PTH,ComponentDrill
T4C0.0394
; #@! TA.AperFunction,Plated,PTH,ComponentDrill
T5C0.0400
; #@! TA.AperFunction,Plated,PTH,ComponentDrill
T6C0.0402
; #@! TA.AperFunction,Plated,PTH,ComponentDrill
T7C0.0512
; #@! TA.AperFunction,Plated,PTH,ComponentDrill
T8C0.1260
%
G90
G05
T1
X3.2809Y-5.4479
X3.3228Y-5.3821
X3.6357Y-5.4222
X3.7728Y-5.3899
X3.8244Y-5.3638
X3.8781Y-5.2522
X4.0559Y-5.2263
X4.2394Y-5.5668
X4.2764Y-5.5014
X4.3192Y-5.7802
X4.3278Y-5.4617
X4.5484Y-3.3572
X4.727Y-2.579
X4.7774Y-5.4451
X5.1166Y-5.7042
X5.3203Y-5.1682
X5.3206Y-5.4362
X5.3465Y-5.2565
X5.3923Y-5.2776
X5.4304Y-5.373
X5.4438Y-5.2739
X5.6084Y-5.6535
X5.6513Y-3.2655
X5.7671Y-5.5276
X5.8511Y-5.5745
X5.9843Y-1.9069
X6.0851Y-5.5272
T2
X3.2913Y-1.7717
X3.2913Y-6.0749
X3.319Y-1.7048
X3.319Y-1.8385
X3.319Y-6.0081
X3.319Y-6.1417
X3.3858Y-1.6772
X3.3858Y-1.8661
X3.3858Y-5.9804
X3.3858Y-6.1694
X3.4526Y-1.7048
X3.4526Y-1.8385
X3.4526Y-6.0081
X3.4526Y-6.1417
X3.4783Y-3.5433
X3.4783Y-3.5827
X3.4783Y-3.622
X3.4783Y-3.6614
X3.4783Y-3.7008
X3.4783Y-3.7402
X3.4783Y-3.7795
X3.4783Y-3.8189
X3.4803Y-1.7717
X3.4803Y-6.0749
X3.5039Y-4.4488
X3.5039Y-4.4882
X3.5039Y-4.5276
X3.5039Y-4.5669
X3.5039Y-4.6063
X3.5039Y-4.6457
X3.5039Y-4.685
X3.5039Y-4.7244
X4.2126Y-1.6929
X4.2126Y-1.7323
X4.252Y-1.6929
X4.252Y-1.7323
X4.2913Y-1.6929
X4.2913Y-1.7323
X4.3307Y-1.6929
X4.3307Y-1.7323
X4.3701Y-1.6929
X4.3701Y-1.7323
X7.5827Y-1.7717
X7.5827Y-6.0749
X7.5984Y-3.622
X7.5984Y-3.6614
X7.5984Y-3.7008
X7.5984Y-3.7402
X7.5984Y-3.7795
X7.5984Y-3.8189
X7.5984Y-3.8583
X7.5984Y-3.8976
X7.5984Y-4.4455
X7.5984Y-4.4848
X7.5984Y-4.5242
X7.5984Y-4.5636
X7.5984Y-4.603
X7.5984Y-4.6423
X7.5984Y-4.6817
X7.5984Y-4.7211
X7.5984Y-5.3543
X7.5984Y-5.3937
X7.5984Y-5.4331
X7.5984Y-5.4724
X7.5984Y-5.5118
X7.6104Y-1.7048
X7.6104Y-1.8385
X7.6104Y-6.0081
X7.6104Y-6.1417
X7.6772Y-1.6772
X7.6772Y-1.8661
X7.6772Y-5.9804
X7.6772Y-6.1694
X7.744Y-1.7048
X7.744Y-1.8385
X7.744Y-6.0081
X7.744Y-6.1417
X7.7717Y-1.7717
X7.7717Y-6.0749
T3
X3.9457Y-3.4646
X3.9457Y-3.8646
X3.985Y-4.4031
X3.985Y-4.8031
X4.0457Y-3.4646
X4.0457Y-3.8646
X4.085Y-4.4031
X4.085Y-4.8031
X4.1457Y-3.4646
X4.1457Y-3.8646
X4.185Y-4.4031
X4.185Y-4.8031
X4.2457Y-3.4646
X4.2457Y-3.8646
X4.285Y-4.4031
X4.285Y-4.8031
X4.3457Y-3.4646
X4.3457Y-3.8646
X4.385Y-4.4031
X4.385Y-4.8031
X4.4457Y-3.4646
X4.4457Y-3.8646
X4.485Y-4.4031
X4.485Y-4.8031
X4.5457Y-3.4646
X4.5457Y-3.8646
X4.585Y-4.4031
X4.585Y-4.8031
X4.6457Y-3.4646
X4.6457Y-3.8646
X4.685Y-4.4031
X4.685Y-4.8031
X6.303Y-3.4583
X6.303Y-3.8583
X6.3423Y-4.4425
X6.3423Y-4.8425
X6.3567Y-5.2693
X6.3567Y-5.6693
X6.403Y-3.4583
X6.403Y-3.8583
X6.4423Y-4.4425
X6.4423Y-4.8425
X6.4567Y-5.2693
X6.4567Y-5.6693
X6.503Y-3.4583
X6.503Y-3.8583
X6.5423Y-4.4425
X6.5423Y-4.8425
X6.5567Y-5.2693
X6.5567Y-5.6693
X6.603Y-3.4583
X6.603Y-3.8583
X6.6423Y-4.4425
X6.6423Y-4.8425
X6.6567Y-5.2693
X6.6567Y-5.6693
X6.703Y-3.4583
X6.703Y-3.8583
X6.7423Y-4.4425
X6.7423Y-4.8425
X6.7567Y-5.2693
X6.7567Y-5.6693
X6.803Y-3.4583
X6.803Y-3.8583
X6.8423Y-4.4425
X6.8423Y-4.8425
X6.8567Y-5.2693
X6.8567Y-5.6693
X6.903Y-3.4583
X6.903Y-3.8583
X6.9423Y-4.4425
X6.9423Y-4.8425
X6.9567Y-5.2693
X6.9567Y-5.6693
X7.003Y-3.4583
X7.003Y-3.8583
X7.0423Y-4.4425
X7.0423Y-4.8425
X7.0567Y-5.2693
X7.0567Y-5.6693
T4
X6.7039Y-2.1575
X6.8039Y-2.1575
X6.9039Y-2.1575
X7.0039Y-2.1575
T5
X3.8945Y-6.0749
X3.9945Y-6.0749
X4.0945Y-6.0749
X4.1945Y-6.0749
X4.2945Y-6.0749
X4.6213Y-6.0749
X4.7213Y-6.0749
X4.8213Y-6.0749
X4.9213Y-6.0749
X5.0213Y-6.0749
T6
X3.3654Y-2.126
X3.3654Y-3.126
X3.4654Y-2.126
X3.4654Y-3.126
X3.5654Y-2.126
X3.5654Y-3.126
X3.6654Y-2.126
X3.6654Y-3.126
X3.7654Y-2.126
X3.7654Y-3.126
X3.8654Y-2.126
X3.8654Y-3.126
X3.9654Y-2.126
X3.9654Y-3.126
X4.0654Y-2.126
X4.0654Y-3.126
X4.1654Y-2.126
X4.1654Y-3.126
X4.2654Y-2.126
X4.2654Y-3.126
X4.3654Y-2.126
X4.3654Y-3.126
X4.4654Y-2.126
X4.4654Y-3.126
X4.5654Y-2.126
X4.5654Y-3.126
X4.6654Y-2.126
X4.6654Y-3.126
X4.7654Y-2.126
X4.7654Y-3.126
X4.8654Y-2.126
X4.8654Y-3.126
X4.9654Y-2.126
X4.9654Y-3.126
X5.0654Y-2.126
X5.0654Y-3.126
X5.1654Y-2.126
X5.1654Y-3.126
T7
X5.412Y-1.823
X5.612Y-1.823
T8
X3.3858Y-1.7717
X3.3858Y-6.0749
X7.6772Y-1.7717
X7.6772Y-6.0749
M30
