%TF.GenerationSoftware,KiCad,Pcbnew,7.0.10*%
%TF.CreationDate,2024-02-03T22:52:18+05:30*%
%TF.ProjectId,ControlUnit,436f6e74-726f-46c5-956e-69742e6b6963,rev?*%
%TF.SameCoordinates,Original*%
%TF.FileFunction,Paste,Top*%
%TF.FilePolarity,Positive*%
%FSLAX46Y46*%
G04 Gerber Fmt 4.6, Leading zero omitted, Abs format (unit mm)*
G04 Created by KiCad (PCBNEW 7.0.10) date 2024-02-03 22:52:18*
%MOMM*%
%LPD*%
G01*
G04 APERTURE LIST*
G04 Aperture macros list*
%AMRoundRect*
0 Rectangle with rounded corners*
0 $1 Rounding radius*
0 $2 $3 $4 $5 $6 $7 $8 $9 X,Y pos of 4 corners*
0 Add a 4 corners polygon primitive as box body*
4,1,4,$2,$3,$4,$5,$6,$7,$8,$9,$2,$3,0*
0 Add four circle primitives for the rounded corners*
1,1,$1+$1,$2,$3*
1,1,$1+$1,$4,$5*
1,1,$1+$1,$6,$7*
1,1,$1+$1,$8,$9*
0 Add four rect primitives between the rounded corners*
20,1,$1+$1,$2,$3,$4,$5,0*
20,1,$1+$1,$4,$5,$6,$7,0*
20,1,$1+$1,$6,$7,$8,$9,0*
20,1,$1+$1,$8,$9,$2,$3,0*%
G04 Aperture macros list end*
%ADD10RoundRect,0.160000X-0.197500X-0.160000X0.197500X-0.160000X0.197500X0.160000X-0.197500X0.160000X0*%
%ADD11RoundRect,0.250000X-0.337500X-0.475000X0.337500X-0.475000X0.337500X0.475000X-0.337500X0.475000X0*%
%ADD12RoundRect,0.237500X-0.287500X-0.237500X0.287500X-0.237500X0.287500X0.237500X-0.287500X0.237500X0*%
%ADD13R,0.550000X1.200000*%
%ADD14R,0.650000X0.400000*%
%ADD15RoundRect,0.155000X-0.212500X-0.155000X0.212500X-0.155000X0.212500X0.155000X-0.212500X0.155000X0*%
G04 APERTURE END LIST*
D10*
%TO.C,R6*%
X160805000Y-49000000D03*
X162000000Y-49000000D03*
%TD*%
D11*
%TO.C,C18*%
X95875000Y-145310000D03*
X97950000Y-145310000D03*
%TD*%
D12*
%TO.C,D4*%
X152250000Y-45000000D03*
X154000000Y-45000000D03*
%TD*%
D11*
%TO.C,C15*%
X83375000Y-145160000D03*
X85450000Y-145160000D03*
%TD*%
%TO.C,C19*%
X109211000Y-145504900D03*
X111286000Y-145504900D03*
%TD*%
D10*
%TO.C,R14*%
X130657500Y-139680000D03*
X131852500Y-139680000D03*
%TD*%
D13*
%TO.C,U13*%
X122102500Y-139980100D03*
X123052500Y-139980100D03*
X124002500Y-139980100D03*
X124002500Y-137379900D03*
X122102500Y-137379900D03*
%TD*%
D10*
%TO.C,R12*%
X142452500Y-139700000D03*
X143647500Y-139700000D03*
%TD*%
%TO.C,R8*%
X89852500Y-140160000D03*
X91047500Y-140160000D03*
%TD*%
D14*
%TO.C,D3*%
X136427500Y-131530000D03*
X136427500Y-132180000D03*
X136427500Y-132830000D03*
X138327500Y-132830000D03*
X138327500Y-132180000D03*
X138327500Y-131530000D03*
%TD*%
D10*
%TO.C,R10*%
X130651600Y-144195000D03*
X131846600Y-144195000D03*
%TD*%
%TO.C,R15*%
X102355000Y-140310000D03*
X103550000Y-140310000D03*
%TD*%
%TO.C,R1*%
X152805000Y-49000000D03*
X154000000Y-49000000D03*
%TD*%
%TO.C,R20*%
X155255000Y-145080000D03*
X156450000Y-145080000D03*
%TD*%
D13*
%TO.C,U11*%
X95500000Y-140660100D03*
X96450000Y-140660100D03*
X97400000Y-140660100D03*
X97400000Y-138059900D03*
X95500000Y-138059900D03*
%TD*%
D11*
%TO.C,C16*%
X122027500Y-144730000D03*
X124102500Y-144730000D03*
%TD*%
%TO.C,C17*%
X136177500Y-144930000D03*
X138252500Y-144930000D03*
%TD*%
D15*
%TO.C,C11*%
X168150000Y-47850000D03*
X169285000Y-47850000D03*
%TD*%
D10*
%TO.C,R18*%
X116300000Y-145650000D03*
X117495000Y-145650000D03*
%TD*%
%TO.C,R19*%
X142507500Y-144480000D03*
X143702500Y-144480000D03*
%TD*%
D13*
%TO.C,U15*%
X148152500Y-140430100D03*
X149102500Y-140430100D03*
X150052500Y-140430100D03*
X150052500Y-137829900D03*
X148152500Y-137829900D03*
%TD*%
D11*
%TO.C,C20*%
X148177500Y-144980000D03*
X150252500Y-144980000D03*
%TD*%
D13*
%TO.C,U14*%
X136002500Y-140230100D03*
X136952500Y-140230100D03*
X137902500Y-140230100D03*
X137902500Y-137629900D03*
X136002500Y-137629900D03*
%TD*%
%TO.C,U4*%
X82500000Y-140460100D03*
X83450000Y-140460100D03*
X84400000Y-140460100D03*
X84400000Y-137859900D03*
X82500000Y-137859900D03*
%TD*%
D12*
%TO.C,D1*%
X160250000Y-45000000D03*
X162000000Y-45000000D03*
%TD*%
D10*
%TO.C,R9*%
X89852500Y-145150000D03*
X91047500Y-145150000D03*
%TD*%
%TO.C,R13*%
X155252500Y-139700000D03*
X156447500Y-139700000D03*
%TD*%
%TO.C,R16*%
X102355000Y-145500000D03*
X103550000Y-145500000D03*
%TD*%
%TO.C,R17*%
X116055000Y-140460000D03*
X117250000Y-140460000D03*
%TD*%
D14*
%TO.C,D2*%
X96650000Y-130800000D03*
X96650000Y-131450000D03*
X96650000Y-132100000D03*
X98550000Y-132100000D03*
X98550000Y-131450000D03*
X98550000Y-130800000D03*
%TD*%
D13*
%TO.C,U12*%
X108950000Y-141010100D03*
X109900000Y-141010100D03*
X110850000Y-141010100D03*
X110850000Y-138409900D03*
X108950000Y-138409900D03*
%TD*%
M02*
